<svg xmlns="http://www.w3.org/2000/svg" width="128" height="128" viewBox="0 0 128 128">
  <defs>
    <pattern id="grassDots" width="8" height="8" patternUnits="userSpaceOnUse"><circle cx="2" cy="2" r="1" fill="#6ee7b7"/></pattern>
    <pattern id="forestDots" width="8" height="8" patternUnits="userSpaceOnUse"><circle cx="3" cy="3" r="1.5" fill="#14532d"/></pattern>
    <pattern id="waterWave" width="8" height="8" patternUnits="userSpaceOnUse"><path d="M0 4 Q2 2 4 4 T8 4" stroke="#93c5fd" stroke-width="1" fill="none"/></pattern>
    <pattern id="roadDash" width="8" height="8" patternUnits="userSpaceOnUse"><rect x="0" y="3" width="8" height="2" fill="#a16207"/></pattern>
  </defs>

  <!-- Row 1 -->
  <rect x="0" y="0" width="32" height="32" fill="#22c55e"/><rect x="0" y="0" width="32" height="32" fill="url(#grassDots)"/>
  <rect x="32" y="0" width="32" height="32" fill="#16a34a"/><circle cx="48" cy="16" r="6" fill="#4ade80" opacity="0.5"/>
  <rect x="64" y="0" width="32" height="32" fill="#166534"/><rect x="64" y="0" width="32" height="32" fill="url(#forestDots)"/>
  <rect x="96" y="0" width="32" height="32" fill="#facc15"/><circle cx="112" cy="16" r="7" fill="#fde68a" opacity="0.5"/>

  <!-- Row 2 -->
  <rect x="0" y="32" width="32" height="32" fill="#0ea5e9"/><rect x="0" y="32" width="32" height="32" fill="url(#waterWave)"/>
  <rect x="32" y="32" width="32" height="32" fill="#0369a1"/><rect x="32" y="32" width="32" height="32" fill="url(#waterWave)"/>
  <rect x="64" y="32" width="32" height="32" fill="#6b7280"/><polygon points="66,62 80,36 94,62" fill="#374151"/>
  <rect x="96" y="32" width="32" height="32" fill="#84cc16"/><circle cx="112" cy="48" r="8" fill="#65a30d"/>

  <!-- Row 3 -->
  <rect x="0" y="64" width="32" height="32" fill="#b45309"/><rect x="0" y="64" width="32" height="32" fill="url(#roadDash)"/>
  <rect x="32" y="64" width="32" height="32" fill="#78716c"/><rect x="38" y="70" width="20" height="20" fill="#a8a29e"/>
  <rect x="64" y="64" width="32" height="32" fill="#3f6212"/><circle cx="80" cy="80" r="10" fill="#65a30d" opacity="0.5"/>
  <rect x="96" y="64" width="32" height="32" fill="#f1f5f9"/><polygon points="112,68 106,88 118,88" fill="#cbd5e1"/>

  <!-- Row 4 -->
  <rect x="0" y="96" width="32" height="32" fill="#92400e"/><rect x="8" y="104" width="16" height="16" fill="#d97706"/>
  <rect x="32" y="96" width="32" height="32" fill="#4b5563"/><rect x="34" y="98" width="28" height="28" stroke="#9ca3af" fill="none"/>
  <rect x="64" y="96" width="32" height="32" fill="#065f46"/><circle cx="80" cy="112" r="9" fill="#10b981" opacity="0.55"/>
  <rect x="96" y="96" width="32" height="32" fill="#312e81"/><circle cx="112" cy="112" r="8" fill="#818cf8" opacity="0.65"/>
</svg>
